# Blender v2.78 (sub 0) OBJ File: 'modelOli.blend'
# www.blender.org
mtllib modelOli.mtl
o Cube
v 3.000000 -0.126103 -3.000000
v 3.000000 -0.126103 3.000000
v -3.000000 -0.126103 3.000000
v -2.999999 -0.126103 -3.000001
v 3.000001 0.126103 -2.999998
v 2.999998 0.126103 3.000002
v -3.000001 0.126103 2.999999
v -3.000000 0.126103 -3.000000
v 0.675294 2.506860 -0.675293
v 0.675293 2.506860 0.675294
v -0.675294 2.506860 0.675294
v -0.675294 2.506860 -0.675293
v 0.675294 8.987811 -0.675293
v 0.675293 8.987811 0.675294
v -0.675294 8.987811 0.675294
v -0.675294 8.987811 -0.675293
v 2.914784 11.544919 -2.914781
v 2.914781 11.544919 2.914785
v -2.914783 11.544919 2.914782
v -2.914783 11.544919 -2.914783
v 2.914784 11.975242 -2.914781
v 2.914781 11.975242 2.914785
v -2.914783 11.975242 2.914782
v -2.914783 11.975242 -2.914783
vn 0.0000 -1.0000 0.0000
vn -0.7155 0.6986 -0.0000
vn 1.0000 0.0000 0.0000
vn -0.0000 -0.0000 1.0000
vn -1.0000 -0.0000 -0.0000
vn 0.0000 0.0000 -1.0000
vn 0.0000 0.6986 -0.7155
vn -0.0000 0.6986 0.7155
vn 0.7155 0.6986 0.0000
vn -0.0000 -0.6588 0.7523
vn 0.7523 -0.6588 0.0000
vn -0.7523 -0.6588 0.0000
vn 0.0000 -0.6588 -0.7523
vn 0.0000 1.0000 0.0000
usemtl Material
s off
f 1//1 2//1 3//1 4//1
f 8//2 7//2 11//2 12//2
f 1//3 5//3 6//3 2//3
f 2//4 6//4 7//4 3//4
f 3//5 7//5 8//5 4//5
f 5//6 1//6 4//6 8//6
f 12//5 11//5 15//5 16//5
f 5//7 8//7 12//7 9//7
f 7//8 6//8 10//8 11//8
f 6//9 5//9 9//9 10//9
f 15//10 14//10 18//10 19//10
f 9//6 12//6 16//6 13//6
f 11//4 10//4 14//4 15//4
f 10//3 9//3 13//3 14//3
f 18//3 17//3 21//3 22//3
f 14//11 13//11 17//11 18//11
f 16//12 15//12 19//12 20//12
f 13//13 16//13 20//13 17//13
f 21//14 24//14 23//14 22//14
f 20//5 19//5 23//5 24//5
f 17//6 20//6 24//6 21//6
f 19//4 18//4 22//4 23//4
